<svg width="176" height="176" viewBox="0 0 176 176" fill="none" xmlns="http://www.w3.org/2000/svg">
<path d="M42.816 112.024C39.232 112.024 35.904 111.469 32.832 110.36C29.8027 109.208 27.1573 107.587 24.896 105.496C22.6773 103.405 20.9493 100.931 19.712 98.072C18.4747 95.2133 17.856 92.056 17.856 88.6C17.856 85.144 18.4747 81.9867 19.712 79.128C20.9493 76.2693 22.6773 73.7947 24.896 71.704C27.1573 69.6133 29.8027 68.0133 32.832 66.904C35.904 65.752 39.232 65.176 42.816 65.176C47.2107 65.176 51.0933 65.944 54.464 67.48C57.8773 69.016 60.6933 71.2347 62.912 74.136L53.376 82.648C52.0533 80.984 50.5813 79.704 48.96 78.808C47.3813 77.8693 45.5893 77.4 43.584 77.4C42.0053 77.4 40.576 77.656 39.296 78.168C38.016 78.68 36.9067 79.4267 35.968 80.408C35.072 81.3893 34.368 82.584 33.856 83.992C33.344 85.3573 33.088 86.8933 33.088 88.6C33.088 90.3067 33.344 91.864 33.856 93.272C34.368 94.6373 35.072 95.8107 35.968 96.792C36.9067 97.7733 38.016 98.52 39.296 99.032C40.576 99.544 42.0053 99.8 43.584 99.8C45.5893 99.8 47.3813 99.352 48.96 98.456C50.5813 97.5173 52.0533 96.216 53.376 94.552L62.912 103.064C60.6933 105.923 57.8773 108.141 54.464 109.72C51.0933 111.256 47.2107 112.024 42.816 112.024ZM81.097 82.84H101.065V93.72H81.097V82.84ZM82.121 99.608H104.521V111H67.273V66.2H103.689V77.592H82.121V99.608ZM110.336 111V66.2H132.416C137.408 66.2 141.802 67.1173 145.6 68.952C149.397 70.744 152.362 73.304 154.496 76.632C156.629 79.96 157.696 83.928 157.696 88.536C157.696 93.1867 156.629 97.1973 154.496 100.568C152.362 103.896 149.397 106.477 145.6 108.312C141.802 110.104 137.408 111 132.416 111H110.336ZM125.44 99.224H131.776C133.909 99.224 135.765 98.8187 137.344 98.008C138.965 97.1973 140.224 96.0027 141.12 94.424C142.016 92.8027 142.464 90.84 142.464 88.536C142.464 86.2747 142.016 84.3547 141.12 82.776C140.224 81.1973 138.965 80.0027 137.344 79.192C135.765 78.3813 133.909 77.976 131.776 77.976H125.44V99.224Z" fill="white"/>
</svg>
